<svg width="98" height="98" viewBox="0 0 98 98" fill="none" xmlns="http://www.w3.org/2000/svg">
<g clip-path="url(#clip0)">
<path d="M62.525 52.1439C62.525 52.1439 74.8974 59.7783 74.9051 59.7829C75.7945 60.3317 76.992 60.0493 77.5388 59.1591C78.0857 58.2687 77.807 57.0741 76.9168 56.5254C76.9168 56.5254 64.5521 48.8959 64.5366 48.8864C63.6468 48.3372 62.4484 48.6268 61.901 49.5101C61.3524 50.3954 61.6435 51.6005 62.525 52.1439Z" fill="#E7272D"/>
<path d="M56.0177 48.1108C56.3123 48.2974 56.6557 48.4094 57.0123 48.4094C57.682 48.4094 58.2926 48.0708 58.6428 47.5006C59.3889 46.286 58.4511 44.5815 57.0165 44.5813C55.794 44.5811 54.8721 45.7449 55.1516 46.9346C55.2628 47.4086 55.5886 47.839 56.0177 48.1108Z" fill="#E7272D"/>
<path d="M23.2756 60.0733C23.6358 60.0835 23.994 60.0006 24.2935 59.8117C24.2935 59.8117 36.5904 52.0557 36.599 52.0502C37.4841 51.492 37.7528 50.2971 37.1966 49.4113C36.6566 48.5513 35.4117 48.2734 34.5567 48.8135C34.5567 48.8135 22.2719 56.5601 22.2512 56.5731C21.366 57.1312 21.0959 58.3271 21.6535 59.2116C21.9886 59.7435 22.6354 60.0553 23.2756 60.0733Z" fill="#E7272D"/>
<path d="M42.0539 48.262C42.9411 48.262 43.7243 47.6374 43.9201 46.7707C44.1883 45.584 43.263 44.4338 42.0501 44.4338C41.1612 44.4338 40.3824 45.0586 40.1858 45.9245C39.918 47.1041 40.8519 48.262 42.0539 48.262Z" fill="#E7272D"/>
<path d="M97.5304 87.1798C96.8367 86.382 95.6278 86.2978 94.83 86.9915C92.7891 88.766 90.9003 90.6058 88.2223 91.346C85.2454 92.1686 82.4162 91.5194 79.722 90.1722L89.6902 56.6333C89.9383 55.799 89.5918 54.9023 88.8475 54.4511L79.625 48.863V32.5451C79.625 31.4882 78.768 30.631 77.7109 30.631H73.8828V24.8889C73.8828 23.8319 73.0259 22.9748 71.9687 22.9748H65.9394V17.2326C65.9394 16.1757 65.0825 15.3186 64.0254 15.3186H54.7422V1.92016C54.7422 0.863219 53.8853 0.00610352 52.8281 0.00610352H45.1719C44.1148 0.00610352 43.2578 0.863219 43.2578 1.92016V15.3186H33.9746C32.9175 15.3186 32.0606 16.1757 32.0606 17.2326V22.9748H26.0313C24.9742 22.9748 24.1172 23.8319 24.1172 24.8889V30.631H20.2891C19.232 30.631 18.3751 31.4882 18.3751 32.5451V48.863L9.15275 54.4509C8.40818 54.9021 8.06193 55.7988 8.30999 56.6332C8.30999 56.6332 18.2537 90.089 18.2579 90.1035C18.0882 89.5324 15.0253 89.1563 14.4838 89.0862C8.91062 88.365 4.6727 91.1568 0.658154 94.6475C-0.139625 95.3412 -0.223844 96.5499 0.46962 97.3477C1.13169 98.1091 2.36377 98.237 3.16978 97.5362C7.30568 93.9408 11.9685 91.2001 17.4408 93.9366C22.3913 96.4117 27.5157 97.4731 32.6719 94.7597C36.8297 92.5711 40.8419 90.6814 45.4827 92.891L50.2539 95.163C54.3358 97.1069 58.9962 97.0621 63.0396 95.0401C65.5314 93.7942 68.0639 92.1363 70.9101 91.9407C73.7 91.7491 76.3958 92.7878 78.8471 94.0145C82.0855 95.6338 85.8767 95.9573 89.3541 94.966C92.5573 94.0528 94.8884 92.0128 97.3417 89.8798C98.1396 89.1863 98.2239 87.9776 97.5304 87.1798ZM76.1839 88.6383C76.2051 88.0461 70.817 88.0515 70.456 88.0896C67.1336 88.441 64.2595 90.1504 61.3275 91.6164C57.8638 93.3483 54.2999 92.8504 50.9141 91.2374V35.9429L85.5997 56.9593L76.1839 88.6383ZM75.7968 46.5436L55.8527 34.4592H75.7968V46.5436ZM47.086 3.83422H50.9141V15.3186H47.086V3.83422ZM35.8887 19.1467H62.1113V22.9748H35.8887V19.1467ZM27.9454 26.8029H70.0547V30.631H27.9454V26.8029ZM22.2032 34.4592H42.1473L22.2032 46.5436V34.4592ZM47.086 35.9429C47.086 35.9429 47.086 89.4126 47.086 89.4147C47.0863 89.0745 44.3575 88.4471 44.0005 88.3698C40.6693 87.6488 37.093 88.1066 34.073 89.6962C31.8818 90.8494 29.7677 92.1948 27.2617 92.5176C27.2571 92.5181 27.2525 92.5187 27.2479 92.5193C25.7836 92.6973 24.2849 92.5895 22.8677 92.1763L12.4003 56.9593L47.086 35.9429Z" fill="#E7272D"/>
</g>
<defs>
<clipPath id="clip0">
<rect width="98" height="98" fill="white"/>
</clipPath>
</defs>
</svg>
