<svg xmlns="http://www.w3.org/2000/svg" xmlns:xlink="http://www.w3.org/1999/xlink" width="98" height="98" viewBox="0 0 98 98">
  <defs>
    <clipPath id="clip-path">
      <rect id="Rectangle_4" data-name="Rectangle 4" width="98" height="98" fill="#fff"/>
    </clipPath>
  </defs>
  <g id="cruise-w" clip-path="url(#clip-path)">
    <path id="Path_1" data-name="Path 1" d="M62.525,52.144l12.38,7.639a1.914,1.914,0,0,0,2.012-3.258l-12.38-7.639a1.914,1.914,0,1,0-2.012,3.258Z" fill="#fff"/>
    <path id="Path_2" data-name="Path 2" d="M56.018,48.111a1.866,1.866,0,0,0,.995.3,1.9,1.9,0,0,0,1.631-.909,1.959,1.959,0,0,0-1.626-2.919,1.928,1.928,0,0,0-1.865,2.353A1.962,1.962,0,0,0,56.018,48.111Z" fill="#fff"/>
    <path id="Path_3" data-name="Path 3" d="M23.276,60.073a1.81,1.81,0,0,0,1.018-.262L36.6,52.05a1.928,1.928,0,0,0,.6-2.639,1.971,1.971,0,0,0-2.64-.6l-12.306,7.76a1.927,1.927,0,0,0-.6,2.639A2,2,0,0,0,23.276,60.073Z" fill="#fff"/>
    <path id="Path_4" data-name="Path 4" d="M42.054,48.262a1.914,1.914,0,1,0-1.868-2.338A1.924,1.924,0,0,0,42.054,48.262Z" fill="#fff"/>
    <path id="Path_5" data-name="Path 5" d="M97.53,87.18a1.914,1.914,0,0,0-2.7-.188c-2.041,1.774-3.93,3.614-6.608,4.354a11.628,11.628,0,0,1-8.5-1.174L89.69,56.633a1.914,1.914,0,0,0-.843-2.182l-9.223-5.588V32.545a1.914,1.914,0,0,0-1.914-1.914H73.883V24.889a1.914,1.914,0,0,0-1.914-1.914H65.939V17.233a1.914,1.914,0,0,0-1.914-1.914H54.742V1.92A1.914,1.914,0,0,0,52.828.006H45.172A1.914,1.914,0,0,0,43.258,1.92v13.4H33.975a1.914,1.914,0,0,0-1.914,1.914v5.742H26.031a1.914,1.914,0,0,0-1.914,1.914v5.742H20.289a1.914,1.914,0,0,0-1.914,1.914V48.863L9.153,54.451a1.914,1.914,0,0,0-.843,2.182L18.258,90.1c-.17-.571-3.233-.947-3.774-1.017C8.911,88.365,4.673,91.157.658,94.647a1.914,1.914,0,0,0-.189,2.7,1.938,1.938,0,0,0,2.7.188c4.136-3.6,8.8-6.336,14.271-3.6,4.951,2.475,10.075,3.536,15.231.823,4.158-2.189,8.17-4.078,12.811-1.869l4.771,2.272A14.484,14.484,0,0,0,63.04,95.04c2.492-1.246,5.024-2.9,7.871-3.1a15.661,15.661,0,0,1,7.937,2.074,14.644,14.644,0,0,0,10.507.951c3.2-.913,5.534-2.953,7.988-5.086A1.914,1.914,0,0,0,97.53,87.18ZM76.184,88.638c.021-.592-5.367-.587-5.728-.549-3.322.351-6.2,2.061-9.129,3.527-3.464,1.732-7.028,1.234-10.413-.379V35.943L85.6,56.959ZM75.8,46.544,55.853,34.459H75.8ZM47.086,3.834h3.828V15.319H47.086Zm-11.2,15.312H62.111v3.828H35.889ZM27.945,26.8H70.055v3.828H27.945ZM22.2,34.459H42.147L22.2,46.544Zm24.883,1.484V89.415c0-.34-2.729-.968-3.085-1.045A14.779,14.779,0,0,0,34.073,89.7c-2.191,1.153-4.305,2.5-6.811,2.821l-.014,0a10.961,10.961,0,0,1-4.38-.343L12.4,56.959Z" fill="#fff"/>
  </g>
</svg>
