<svg xmlns="http://www.w3.org/2000/svg" xmlns:xlink="http://www.w3.org/1999/xlink" width="83" height="83" viewBox="0 0 83 83">
  <defs>
    <clipPath id="clip-path">
      <rect id="Rectangle_5" data-name="Rectangle 5" width="83" height="83" fill="#fff"/>
    </clipPath>
  </defs>
  <g id="headphones-w" clip-path="url(#clip-path)">
    <path id="Path_6" data-name="Path 6" d="M83,53.069a9.162,9.162,0,0,0-7.7-9.033v-7A33.664,33.664,0,0,0,62.668,10.691l-.023-.017a33.8,33.8,0,0,0-42.237-.044l-.011.008A33.654,33.654,0,0,0,7.7,37.039v7A9.147,9.147,0,0,0,7.7,62.1v.991a3.922,3.922,0,0,0,3.918,3.918h9.672a3.922,3.922,0,0,0,3.918-3.918V43.045a3.922,3.922,0,0,0-3.918-3.918H17.43V37.039A23.883,23.883,0,0,1,23.48,21.1a4.924,4.924,0,0,0,5.351-.43,20.629,20.629,0,0,1,5.993-3.216,1.621,1.621,0,1,0-1.042-3.07,23.859,23.859,0,0,0-6.933,3.72,1.668,1.668,0,0,1-2.2-.131l-2.348-2.348a1.649,1.649,0,0,1-.486-1.273,1.606,1.606,0,0,1,.6-1.181,30.556,30.556,0,0,1,38.212.048,1.609,1.609,0,0,1,.6,1.182,1.649,1.649,0,0,1-.486,1.271l-2.3,2.3a1.669,1.669,0,0,1-2.2.131,23.857,23.857,0,0,0-7.038-3.755,1.621,1.621,0,1,0-1.028,3.075,20.627,20.627,0,0,1,6.084,3.246,4.927,4.927,0,0,0,5.28.468,23.89,23.89,0,0,1,6.018,15.9v2.088H61.707a3.922,3.922,0,0,0-3.918,3.918V63.092a3.922,3.922,0,0,0,3.918,3.918h9.672a3.909,3.909,0,0,0,.676-.06v4.46a5.111,5.111,0,0,1-5.105,5.105H52.031V74.073a4.047,4.047,0,0,0-4.043-4.042H43.942A4.047,4.047,0,0,0,39.9,74.073v4.063a1.621,1.621,0,0,0,1.621,1.621H66.949A8.357,8.357,0,0,0,75.3,71.41V62.1A9.162,9.162,0,0,0,83,53.069Zm-79.758,0A5.915,5.915,0,0,1,7.7,47.342V58.795A5.916,5.916,0,0,1,3.242,53.069ZM21.969,43.045V63.092a.676.676,0,0,1-.676.675H11.621a.676.676,0,0,1-.676-.675V43.045a.676.676,0,0,1,.676-.675h9.672A.676.676,0,0,1,21.969,43.045Zm-7.781-6.006v2.088H11.621a3.92,3.92,0,0,0-.676.06V37.039a30.393,30.393,0,0,1,8.032-20.65,4.909,4.909,0,0,0,1.035,1.528l1.037,1.037A27.1,27.1,0,0,0,14.188,37.039ZM43.142,76.516V74.074a.8.8,0,0,1,.8-.8h4.046a.8.8,0,0,1,.8.8v2.442ZM62,19.009l1.045-1.046a4.907,4.907,0,0,0,1.03-1.516,30.4,30.4,0,0,1,7.98,20.592v2.147a3.92,3.92,0,0,0-.676-.06H68.813V37.039A27.11,27.11,0,0,0,62,19.009Zm9.38,44.759H61.707a.676.676,0,0,1-.675-.675V43.045a.676.676,0,0,1,.675-.675h9.672a.676.676,0,0,1,.676.675V63.092A.676.676,0,0,1,71.379,63.768ZM75.3,58.795V47.342a5.906,5.906,0,0,1,0,11.452Z" fill="#fff"/>
    <path id="Path_7" data-name="Path 7" d="M30.859,48.734a1.621,1.621,0,0,0-1.621,1.621v5.427a1.621,1.621,0,0,0,3.242,0V50.355A1.621,1.621,0,0,0,30.859,48.734Z" fill="#fff"/>
    <path id="Path_8" data-name="Path 8" d="M37.953,45.392a1.621,1.621,0,0,0-1.621,1.621V59.124a1.621,1.621,0,0,0,3.242,0V47.013A1.621,1.621,0,0,0,37.953,45.392Z" fill="#fff"/>
    <path id="Path_9" data-name="Path 9" d="M46.668,55.782V50.355a1.621,1.621,0,0,0-3.242,0v5.427a1.621,1.621,0,0,0,3.242,0Z" fill="#fff"/>
    <path id="Path_10" data-name="Path 10" d="M52.141,56.363a1.621,1.621,0,0,0,1.621-1.621V51.395a1.621,1.621,0,0,0-3.242,0v3.347A1.621,1.621,0,0,0,52.141,56.363Z" fill="#fff"/>
    <path id="Path_11" data-name="Path 11" d="M41.5,16.347a1.621,1.621,0,1,0-1.621-1.621A1.621,1.621,0,0,0,41.5,16.347Z" fill="#fff"/>
  </g>
</svg>
