<svg width="83" height="83" viewBox="0 0 83 83" fill="none" xmlns="http://www.w3.org/2000/svg">
<g clip-path="url(#clip0)">
<path d="M83 53.0685C83 48.5159 79.6568 44.7305 75.2969 44.0357V37.0391C75.2969 26.7505 70.6938 17.147 62.6682 10.6911C62.6606 10.685 62.6525 10.6801 62.6449 10.6743C56.6767 5.88149 49.1686 3.24219 41.5 3.24219C33.8564 3.24219 26.3664 5.86609 20.4083 10.6306C20.4047 10.6334 20.4008 10.6357 20.3972 10.6386C12.3297 17.0951 7.70295 26.7177 7.70295 37.0391V44.0357C3.34318 44.7305 0 48.5159 0 53.0685C0 57.621 3.34318 61.4062 7.70311 62.101V63.092C7.70311 65.2523 9.4607 67.0097 11.621 67.0097H21.2932C23.4535 67.0097 25.2109 65.2523 25.2109 63.092V43.0447C25.2109 40.8845 23.4535 39.127 21.2932 39.127H17.4297V37.0391C17.4297 31.114 19.569 25.5079 23.4801 21.1C24.2054 21.4936 25.0133 21.6941 25.8248 21.694C26.8808 21.694 27.9421 21.3561 28.8307 20.6698C30.6408 19.2716 32.6573 18.1896 34.824 17.4542C35.6718 17.1664 36.1258 16.2458 35.8382 15.398C35.5504 14.5503 34.6293 14.0957 33.782 14.384C31.2754 15.2347 28.9427 16.4862 26.8486 18.1039C26.1846 18.6166 25.2409 18.5606 24.6531 17.9726L22.3051 15.6246C21.9647 15.2843 21.792 14.8322 21.8186 14.3514C21.8446 13.8813 22.0594 13.4617 22.4235 13.1704C27.8885 8.79638 34.4852 6.48438 41.5 6.48438C48.5422 6.48438 55.1592 8.81291 60.6352 13.2182C60.9987 13.5105 61.2127 13.9304 61.2381 14.4003C61.264 14.8802 61.0914 15.3315 60.7518 15.671L58.4503 17.9724C57.8627 18.5602 56.9187 18.6166 56.2547 18.1037C54.1311 16.4632 51.7631 15.1997 49.2167 14.3485C48.3666 14.0643 47.4491 14.5231 47.1652 15.3719C46.8814 16.221 47.3397 17.1393 48.1888 17.4232C50.3901 18.1592 52.437 19.2513 54.2726 20.6693C55.8222 21.8661 57.8948 22.0015 59.553 21.1368C63.4428 25.5395 65.5705 31.1331 65.5705 37.0387V39.1267H61.7069C59.5467 39.1267 57.7892 40.8841 57.7892 43.0444V63.0918C57.7892 65.2521 59.5467 67.0095 61.7069 67.0095H71.3792C71.6097 67.0095 71.8352 66.9885 72.0549 66.95V71.41C72.0549 74.2252 69.7646 76.5155 66.9494 76.5155H52.0306V74.0734C52.0306 71.8444 50.2171 70.0311 47.9881 70.0311H43.9419C41.7128 70.0311 39.8993 71.8444 39.8993 74.0734V78.1367C39.8993 79.0321 40.6253 79.7578 41.5204 79.7578H66.9491C71.552 79.7578 75.2967 76.0131 75.2967 71.4102V62.101C79.6568 61.4062 83 57.6208 83 53.0685ZM3.24219 53.0685C3.24219 50.3103 5.14292 47.9884 7.70311 47.3423V58.7946C5.14292 58.1483 3.24219 55.8264 3.24219 53.0685ZM21.9687 43.0447V63.0922C21.9687 63.4647 21.6658 63.7677 21.2932 63.7677H11.621C11.2484 63.7677 10.9453 63.4645 10.9453 63.0922V43.0447C10.9453 42.6722 11.2484 42.3692 11.621 42.3692H21.2932C21.6656 42.3692 21.9687 42.6722 21.9687 43.0447ZM14.1875 37.0391V39.127H11.621C11.3905 39.127 11.165 39.1481 10.9453 39.1865V37.0391C10.9453 29.2956 13.8286 21.9887 18.9773 16.3894C19.2207 16.9537 19.5692 17.4738 20.0124 17.9171L21.0496 18.9542C16.6136 23.9551 14.1875 30.3158 14.1875 37.0391ZM43.1417 76.5156V74.0736C43.1417 73.6323 43.5008 73.2734 43.942 73.2734H47.9883C48.4295 73.2734 48.7886 73.6323 48.7886 74.0736V76.5156H43.1417ZM61.9989 19.0091L63.0443 17.9635C63.4846 17.5232 63.8315 17.0071 64.0747 16.447C69.1902 22.0396 72.0547 29.3256 72.0547 37.0391V39.1865C71.835 39.1481 71.6095 39.127 71.379 39.127H68.8125V37.0391C68.8125 30.3433 66.4034 24.0021 61.9989 19.0091ZM71.379 63.7677H61.7068C61.3342 63.7677 61.0313 63.4645 61.0313 63.0922V43.0447C61.0313 42.6722 61.3342 42.3692 61.7068 42.3692H71.379C71.7516 42.3692 72.0547 42.6722 72.0547 43.0447V63.0922C72.0547 63.4645 71.7516 63.7677 71.379 63.7677ZM75.2969 58.7946V47.3423C77.8571 47.9884 79.7578 50.3103 79.7578 53.0685C79.7578 55.8264 77.8571 58.1483 75.2969 58.7946Z" fill="#E7272D"/>
<path d="M30.8594 48.7336C29.9642 48.7336 29.2383 49.4594 29.2383 50.3547V55.782C29.2383 56.6773 29.9642 57.4031 30.8594 57.4031C31.7545 57.4031 32.4805 56.6773 32.4805 55.782V50.3547C32.4805 49.4594 31.7547 48.7336 30.8594 48.7336Z" fill="#E7272D"/>
<path d="M37.9531 45.3921C37.058 45.3921 36.332 46.1179 36.332 47.0132V59.1239C36.332 60.0192 37.058 60.745 37.9531 60.745C38.8483 60.745 39.5742 60.0192 39.5742 59.1239V47.0132C39.5742 46.1179 38.8485 45.3921 37.9531 45.3921Z" fill="#E7272D"/>
<path d="M46.668 55.782V50.3547C46.668 49.4594 45.942 48.7336 45.0469 48.7336C44.1517 48.7336 43.4258 49.4594 43.4258 50.3547V55.782C43.4258 56.6773 44.1517 57.4031 45.0469 57.4031C45.942 57.4031 46.668 56.6773 46.668 55.782Z" fill="#E7272D"/>
<path d="M52.1406 56.3631C53.0358 56.3631 53.7617 55.6373 53.7617 54.742V51.3948C53.7617 50.4994 53.0358 49.7737 52.1406 49.7737C51.2455 49.7737 50.5195 50.4994 50.5195 51.3948V54.742C50.5195 55.6372 51.2453 56.3631 52.1406 56.3631Z" fill="#E7272D"/>
<path d="M41.5 16.3467C42.3953 16.3467 43.1211 15.6209 43.1211 14.7256C43.1211 13.8303 42.3953 13.1045 41.5 13.1045C40.6047 13.1045 39.8789 13.8303 39.8789 14.7256C39.8789 15.6209 40.6047 16.3467 41.5 16.3467Z" fill="#E7272D"/>
</g>
<defs>
<clipPath id="clip0">
<rect width="83" height="83" fill="white"/>
</clipPath>
</defs>
</svg>
