<svg width="95" height="95" viewBox="0 0 95 95" fill="none" xmlns="http://www.w3.org/2000/svg">
<g clip-path="url(#clip0)">
<path d="M18.3545 34.2339C18.3545 37.4054 20.9349 39.9858 24.1064 39.9858C27.278 39.9858 29.8584 37.4054 29.8584 34.2339C29.8584 31.0623 27.278 28.4819 24.1064 28.4819C20.9349 28.4819 18.3545 31.0623 18.3545 34.2339ZM26.1475 34.2339C26.1475 35.3592 25.2318 36.2749 24.1064 36.2749C22.9811 36.2749 22.0654 35.3592 22.0654 34.2339C22.0654 33.1085 22.9811 32.1929 24.1064 32.1929C25.2318 32.1929 26.1475 33.1085 26.1475 34.2339Z" fill="#E7272D"/>
<path d="M47.4854 39.9858C50.6569 39.9858 53.2373 37.4054 53.2373 34.2339C53.2373 31.0623 50.6569 28.4819 47.4854 28.4819C44.3138 28.4819 41.7334 31.0623 41.7334 34.2339C41.7334 37.4054 44.3138 39.9858 47.4854 39.9858ZM47.4854 32.1929C48.6107 32.1929 49.5264 33.1085 49.5264 34.2339C49.5264 35.3592 48.6107 36.2749 47.4854 36.2749C46.36 36.2749 45.4443 35.3592 45.4443 34.2339C45.4443 33.1085 46.36 32.1929 47.4854 32.1929Z" fill="#E7272D"/>
<path d="M68.8232 34.2339C68.8232 31.0623 66.2428 28.4819 63.0713 28.4819C59.8997 28.4819 57.3193 31.0623 57.3193 34.2339C57.3193 37.4054 59.8997 39.9858 63.0713 39.9858C66.2428 39.9858 68.8232 37.4056 68.8232 34.2339ZM61.0303 34.2339C61.0303 33.1085 61.9459 32.1929 63.0713 32.1929C64.1966 32.1929 65.1123 33.1085 65.1123 34.2339C65.1123 35.3592 64.1966 36.2749 63.0713 36.2749C61.9459 36.2749 61.0303 35.3594 61.0303 34.2339Z" fill="#E7272D"/>
<path d="M89.0232 20.5034H56.0298C55.005 20.5034 54.1743 21.3341 54.1743 22.3589C54.1743 23.3837 55.005 24.2144 56.0298 24.2144H89.023C90.2724 24.2144 91.2889 25.231 91.2889 26.4804V41.9875C91.2889 43.237 90.2723 44.2534 89.023 44.2534H5.97684C4.72736 44.2534 3.71094 43.2368 3.71094 41.9875V26.4804C3.71094 25.231 4.72755 24.2144 5.97684 24.2144H39.3306C40.3553 24.2144 41.186 23.3837 41.186 22.3589C41.186 21.3341 40.3553 20.5034 39.3306 20.5034H5.97684C2.68134 20.5034 0 23.1848 0 26.4804V41.9875C0 45.2832 2.68134 47.9644 5.97684 47.9644H39.707V57.6128H34.8262C34.1271 57.6128 33.4875 58.0056 33.1713 58.6292L26.4916 71.8021C26.2 72.3773 26.228 73.0627 26.5653 73.6123C26.9028 74.1619 27.5016 74.4968 28.1463 74.4968H66.8531C67.4981 74.4968 68.0966 74.1619 68.4341 73.6123C68.7717 73.0627 68.7995 72.3773 68.5078 71.8021L61.8281 58.6292C61.5119 58.0058 60.8724 57.6128 60.1732 57.6128H55.293V47.9644H89.0232C92.3188 47.9644 95 45.283 95 41.9875V26.4804C95 23.1848 92.3187 20.5034 89.0232 20.5034ZM63.8322 70.7859H31.1678L35.9659 61.3239H59.0341L63.8322 70.7859ZM51.582 57.6128H43.418V47.9644H51.582V57.6128Z" fill="#E7272D"/>
<path d="M47.6802 24.2144C48.7049 24.2144 49.5357 23.3836 49.5357 22.3589C49.5357 21.3341 48.7049 20.5034 47.6802 20.5034C46.6554 20.5034 45.8247 21.3341 45.8247 22.3589C45.8247 23.3836 46.6554 24.2144 47.6802 24.2144Z" fill="#E7272D"/>
<path d="M35.7959 36.0898C36.8206 36.0898 37.6514 35.2591 37.6514 34.2344C37.6514 33.2096 36.8206 32.3789 35.7959 32.3789C34.7712 32.3789 33.9404 33.2096 33.9404 34.2344C33.9404 35.2591 34.7712 36.0898 35.7959 36.0898Z" fill="#E7272D"/>
</g>
<defs>
<clipPath id="clip0">
<rect width="95" height="95" fill="white"/>
</clipPath>
</defs>
</svg>
