<svg xmlns="http://www.w3.org/2000/svg" xmlns:xlink="http://www.w3.org/1999/xlink" width="95" height="95" viewBox="0 0 95 95">
  <defs>
    <clipPath id="clip-path">
      <rect id="Rectangle_6" data-name="Rectangle 6" width="95" height="95" fill="#fff"/>
    </clipPath>
  </defs>
  <g id="motion-sensor-w" clip-path="url(#clip-path)">
    <path id="Path_12" data-name="Path 12" d="M18.354,34.234a5.752,5.752,0,1,0,5.752-5.752A5.759,5.759,0,0,0,18.354,34.234Zm7.793,0a2.041,2.041,0,1,1-2.041-2.041A2.043,2.043,0,0,1,26.147,34.234Z" fill="#fff"/>
    <path id="Path_13" data-name="Path 13" d="M47.485,39.986a5.752,5.752,0,1,0-5.752-5.752A5.759,5.759,0,0,0,47.485,39.986Zm0-7.793a2.041,2.041,0,1,1-2.041,2.041A2.043,2.043,0,0,1,47.485,32.193Z" fill="#fff"/>
    <path id="Path_14" data-name="Path 14" d="M68.823,34.234a5.752,5.752,0,1,0-5.752,5.752A5.759,5.759,0,0,0,68.823,34.234Zm-7.793,0a2.041,2.041,0,1,1,2.041,2.041A2.043,2.043,0,0,1,61.03,34.234Z" fill="#fff"/>
    <path id="Path_15" data-name="Path 15" d="M89.023,20.5H56.03a1.855,1.855,0,0,0,0,3.711H89.023a2.269,2.269,0,0,1,2.266,2.266V41.987a2.268,2.268,0,0,1-2.266,2.266H5.977a2.269,2.269,0,0,1-2.266-2.266V26.48a2.269,2.269,0,0,1,2.266-2.266H39.331a1.855,1.855,0,0,0,0-3.711H5.977A5.984,5.984,0,0,0,0,26.48V41.987a5.984,5.984,0,0,0,5.977,5.977h33.73v9.648H34.826a1.855,1.855,0,0,0-1.655,1.016L26.492,71.8A1.855,1.855,0,0,0,28.146,74.5H66.853A1.855,1.855,0,0,0,68.508,71.8l-6.68-13.173a1.856,1.856,0,0,0-1.655-1.016h-4.88V47.964h33.73A5.984,5.984,0,0,0,95,41.987V26.48A5.984,5.984,0,0,0,89.023,20.5ZM63.832,70.786H31.168l4.8-9.462H59.034ZM51.582,57.613H43.418V47.964h8.164Z" fill="#fff"/>
    <path id="Path_16" data-name="Path 16" d="M47.68,24.214a1.855,1.855,0,1,0-1.855-1.855A1.856,1.856,0,0,0,47.68,24.214Z" fill="#fff"/>
    <path id="Path_17" data-name="Path 17" d="M35.8,36.09a1.855,1.855,0,1,0-1.855-1.855A1.855,1.855,0,0,0,35.8,36.09Z" fill="#fff"/>
  </g>
</svg>
