<svg width="51" height="51" viewBox="0 0 51 51" fill="none" xmlns="http://www.w3.org/2000/svg">
<path d="M25.4997 25.026C30.3197 25.026 34.2274 20.2799 34.2274 14.4254C34.2274 8.57077 32.9442 3.82463 25.4997 3.82463C18.0549 3.82463 16.772 8.57077 16.772 14.4254C16.7721 20.2799 20.6797 25.026 25.4997 25.026Z" fill="#E7272D"/>
<path d="M41.966 40.784C41.8045 30.585 40.4725 27.679 30.2797 25.8393C30.2797 25.8393 28.8447 27.6675 25.5005 27.6675C22.1563 27.6675 20.7215 25.8393 20.7215 25.8393C10.6399 27.6587 9.22669 30.5219 9.04094 40.4525C9.02583 41.2634 9.01887 41.306 9.01611 41.2118C9.01664 41.3882 9.01743 41.7144 9.01743 42.2834C9.01743 42.2834 11.4442 47.1753 25.5006 47.1753C39.5571 47.1753 41.9841 42.2834 41.9841 42.2834C41.9841 41.9179 41.9844 41.6636 41.9846 41.4908C41.9819 41.549 41.9762 41.4362 41.966 40.784Z" fill="#E7272D"/>
<path d="M37.612 23.1333C41.5269 23.1333 44.7005 19.2786 44.7005 14.5237C44.7005 9.76858 43.6585 5.91389 37.612 5.91389C36.595 5.91389 35.7198 6.02332 34.967 6.2276C36.3635 8.80212 36.5549 11.9292 36.5549 14.4253C36.5549 17.2515 35.7888 19.9497 34.3779 22.1839C35.3477 22.7895 36.4466 23.1333 37.612 23.1333Z" fill="#E7272D"/>
<path d="M50.9851 35.9315C50.8537 27.6482 49.772 25.2879 41.4936 23.7938C41.4936 23.7938 40.3282 25.2787 37.6121 25.2787C37.4998 25.2787 37.3909 25.2753 37.2837 25.2705C39.0095 26.0485 40.5794 27.1319 41.7356 28.7172C43.7343 31.4579 44.1938 35.1396 44.2887 40.5484C49.8582 39.4478 50.9997 37.1495 50.9997 37.1495C50.9997 36.85 50.9997 36.6446 51.0002 36.5041C50.998 36.5535 50.9934 36.465 50.9851 35.9315Z" fill="#E7272D"/>
<path d="M13.3875 23.1331C14.5531 23.1331 15.6517 22.7894 16.6218 22.1839C15.2109 19.9497 14.4448 17.2515 14.4448 14.4253C14.4448 11.929 14.6362 8.80199 16.0325 6.2276C15.2798 6.02332 14.4048 5.91389 13.3875 5.91389C7.34105 5.91389 6.29932 9.76858 6.29932 14.5237C6.29932 19.2785 9.47287 23.1331 13.3875 23.1331Z" fill="#E7272D"/>
<path d="M13.7162 25.2703C13.6093 25.2752 13.5004 25.2786 13.3878 25.2786C10.6717 25.2786 9.50633 23.7936 9.50633 23.7936C1.22814 25.2878 0.146211 27.6479 0.0151071 35.9314C0.00656832 36.465 0.00223323 36.5534 0 36.5039C0.000262733 36.6443 0.000525466 36.8497 0.000525466 37.1493C0.000525466 37.1493 1.1421 39.4475 6.71125 40.5481C6.80649 35.1395 7.26575 31.4578 9.26475 28.717C10.4208 27.1319 11.9905 26.0484 13.7162 25.2703Z" fill="#E7272D"/>
</svg>
