<svg xmlns="http://www.w3.org/2000/svg" xmlns:xlink="http://www.w3.org/1999/xlink" width="90" height="90" viewBox="0 0 90 90">
  <defs>
    <clipPath id="clip-path">
      <rect id="Rectangle_7" data-name="Rectangle 7" width="90" height="90" fill="#fff"/>
    </clipPath>
  </defs>
  <g id="vest-w" clip-path="url(#clip-path)">
    <path id="Path_18" data-name="Path 18" d="M81.915,34.515A11.583,11.583,0,0,1,72.2,23.057c0-.694,0-.228.969-14.779a4.838,4.838,0,0,0-3.784-5.025L54.453.029a1.332,1.332,0,0,0-1,.185A16.947,16.947,0,0,1,47.638,2.73a1.337,1.337,0,0,0-.153.029,12.817,12.817,0,0,1-4.971,0,1.318,1.318,0,0,0-.148-.028A16.949,16.949,0,0,1,36.548.214,1.29,1.29,0,0,0,35.537.032h0L20.618,3.253a4.837,4.837,0,0,0-3.785,5.025l.94,13.992A11.585,11.585,0,0,1,8.085,34.515a1.318,1.318,0,0,0-1.1,1.3v49.8A4.386,4.386,0,0,0,11.363,90H63.3a1.318,1.318,0,1,0,0-2.637H52.63l-6.563-4.954V74.8H80.381V85.619a1.746,1.746,0,0,1-1.744,1.744H68.571a1.318,1.318,0,1,0,0,2.637H78.637a4.386,4.386,0,0,0,4.381-4.381v-49.8A1.318,1.318,0,0,0,81.915,34.515Zm-72.3,34.7H43.43v2.948H9.619Zm0-2.637V55.629H15.8a1.318,1.318,0,1,0,0-2.637H9.619V50.044H43.43v2.948H21.076a1.318,1.318,0,1,0,0,2.637H43.43V66.58Zm25.208-63.7,8.6,38.147v6.378H31.52V3.6Zm8.333,7.861h3.68a2.283,2.283,0,0,0,2.281-2.28V5.085a18.415,18.415,0,0,0,3.073-1.143L49.611,14.786a1.318,1.318,0,0,0,2.565.611L55.158,2.879l3.323.717V47.407H46.067V41.042l4.887-20.516a1.318,1.318,0,1,0-2.565-.611L44.784,35.048,37.765,3.921A18.451,18.451,0,0,0,40.88,5.085V8.463A2.283,2.283,0,0,0,43.16,10.743Zm37.22,42.249H46.067V50.044H80.381ZM61.118,47.407V4.165l2.749.593V47.407Zm-32.235,0H26.132V4.759l2.751-.594Zm17.184,8.222H80.381V66.58H46.067ZM70.539,8.1c-.979,14.712-.975,14.1-.975,14.956A14.207,14.207,0,0,0,80.381,36.888V47.407H66.5V5.328l2.325.5A2.186,2.186,0,0,1,70.539,8.1ZM46.484,5.566v2.54H43.517V5.566A15.328,15.328,0,0,0,46.484,5.566ZM20.4,22.093,19.464,8.1a2.186,2.186,0,0,1,1.71-2.27l2.321-.5V47.407H9.619V36.888A14.208,14.208,0,0,0,20.4,22.093Zm20.839,65.27,3.5-2.646,3.5,2.646Zm2.187-4.954-6.563,4.954h-25.5a1.746,1.746,0,0,1-1.744-1.744V74.8H43.43Zm2.637-10.244V69.217H80.381v2.948Z" fill="#fff"/>
  </g>
</svg>
