<svg width="90" height="90" viewBox="0 0 90 90" fill="none" xmlns="http://www.w3.org/2000/svg">
<g clip-path="url(#clip0)">
<path d="M81.9155 34.5146C76.2867 33.5768 72.2012 28.758 72.2012 23.0567C72.2012 22.3625 72.1998 22.8284 73.1699 8.27742C73.329 5.91279 71.7021 3.75242 69.3859 3.25215C68.0809 2.97054 56.0561 0.374937 54.4533 0.028997C54.1063 -0.0457106 53.7401 0.0267118 53.4534 0.214272C51.5005 1.49151 49.5664 2.32982 47.638 2.73007C47.5858 2.73658 47.5347 2.7466 47.4846 2.7589C45.8262 3.08304 44.1719 3.08287 42.5136 2.7582C42.4653 2.74642 42.4162 2.73693 42.366 2.7306C40.4367 2.33069 38.5019 1.49186 36.5481 0.214448C36.2122 -0.00739003 35.9276 -0.026023 35.5368 0.0316337C35.5366 0.0316337 35.5366 0.0316337 35.5364 0.0316337C35.5364 0.0316337 35.5363 0.0316337 35.5361 0.0316337C33.1412 0.548786 24.3428 2.44847 20.6183 3.25267C18.3015 3.75242 16.6741 5.91244 16.8332 8.27725L17.7734 22.2694C18.1749 28.2641 14.0096 33.5284 8.08465 34.5146C7.44884 34.6206 6.98267 35.1704 6.98267 35.815V85.6191C6.98267 88.0348 8.94792 90 11.3635 90H63.3001C64.0284 90 64.6185 89.4099 64.6185 88.6816C64.6185 87.9534 64.0284 87.3633 63.3001 87.3633H52.6303L46.0671 82.4092V74.8022H80.3807V85.6191C80.3807 86.5809 79.5983 87.3633 78.6366 87.3633H68.5713C67.843 87.3633 67.2529 87.9534 67.2529 88.6816C67.2529 89.4099 67.843 90 68.5713 90H78.6366C81.0522 90 83.0174 88.0348 83.0174 85.6191V35.815C83.0173 35.1706 82.5515 34.6204 81.9155 34.5146ZM9.61923 69.2172H43.4301V72.1654H9.61923V69.2172ZM9.61923 66.5805V55.629H15.8048C16.5331 55.629 17.1232 55.0389 17.1232 54.3107C17.1232 53.5824 16.5331 52.9923 15.8048 52.9923H9.61923V50.0441C20.7308 50.0441 27.7398 50.0444 43.4301 50.0441V52.9923H21.0764C20.3481 52.9923 19.758 53.5824 19.758 54.3107C19.758 55.0389 20.3481 55.629 21.0764 55.629H43.4301V66.5805H9.61923ZM34.8277 2.8823L43.4301 41.0292V47.4073H31.52V3.59633L34.8277 2.8823ZM43.1605 10.7429H46.8405C48.0979 10.7429 49.1211 9.72007 49.1211 8.46252V5.08486C50.1468 4.80782 51.1714 4.42567 52.1945 3.94157L49.611 14.7861C49.4423 15.4944 49.8796 16.2054 50.588 16.3741C51.3041 16.544 52.009 16.0989 52.176 15.3971L55.1584 2.87861L58.4817 3.59598V47.4072H46.0671V41.0417L50.9545 20.5253C51.1233 19.817 50.6859 19.106 49.9775 18.9372C49.2681 18.769 48.5581 19.206 48.3895 19.9142L44.7844 35.0479L37.7648 3.921C38.8018 4.4146 39.8405 4.80396 40.8801 5.08486V8.4627C40.8801 9.72007 41.9029 10.7429 43.1605 10.7429ZM80.3805 52.9923H46.0669V50.0441C47.756 50.0441 68.8886 50.0444 80.3805 50.0441V52.9923ZM61.1183 47.4073V4.16516L63.8677 4.7586V47.4073H61.1183ZM28.8833 47.4073H26.1323V4.75948L28.8833 4.16551V47.4073ZM46.0669 55.629H80.3805V66.5805H46.0669V55.629ZM70.5392 8.10023C69.5604 22.812 69.5646 22.1994 69.5646 23.0567C69.5646 29.6744 74.0503 35.323 80.3805 36.888V47.4073H66.5044V5.32761L68.8295 5.82947C69.8759 6.05553 70.6111 7.03183 70.5392 8.10023ZM46.4842 5.56633V8.10639H43.5168V5.56633C44.5059 5.6623 45.4951 5.6623 46.4842 5.56633ZM20.4042 22.0929L19.4639 8.10041C19.392 7.032 20.1272 6.05588 21.1741 5.83L23.4953 5.32884V47.4072H9.61923V36.8882C16.2965 35.2402 20.8714 29.0697 20.4042 22.0929ZM41.2436 87.3633L44.7485 84.7176L48.2534 87.3633H41.2436ZM43.4301 82.4092L36.8669 87.3633H11.3633C10.4016 87.3633 9.61923 86.5809 9.61923 85.6191V74.8022H43.4301V82.4092ZM46.0669 72.1654V69.2172H80.3805V72.1654H46.0669Z" fill="#E7272D"/>
</g>
<defs>
<clipPath id="clip0">
<rect width="90" height="90" fill="white"/>
</clipPath>
</defs>
</svg>
