<svg width="727" height="193" viewBox="0 0 727 193" fill="none" xmlns="http://www.w3.org/2000/svg">
<g filter="url(#filter0_d)">
<rect x="17" y="12" width="693" height="159" rx="14" fill="url(#paint0_linear)"/>
<rect x="17.5" y="12.5" width="692" height="158" rx="13.5" stroke="#FF6C71"/>
</g>
<path d="M83.2 54.6V77H78.016V67.816H67.84V77H62.656V54.6H67.84V63.432H78.016V54.6H83.2ZM96.3398 77.256C94.5264 77.256 92.8944 76.8827 91.4438 76.136C90.0144 75.368 88.8944 74.312 88.0838 72.968C87.2731 71.624 86.8678 70.0987 86.8678 68.392C86.8678 66.6853 87.2731 65.16 88.0838 63.816C88.8944 62.472 90.0144 61.4267 91.4438 60.68C92.8944 59.912 94.5264 59.528 96.3398 59.528C98.1531 59.528 99.7744 59.912 101.204 60.68C102.633 61.4267 103.753 62.472 104.564 63.816C105.374 65.16 105.78 66.6853 105.78 68.392C105.78 70.0987 105.374 71.624 104.564 72.968C103.753 74.312 102.633 75.368 101.204 76.136C99.7744 76.8827 98.1531 77.256 96.3398 77.256ZM96.3398 73.16C97.6198 73.16 98.6651 72.7333 99.4758 71.88C100.308 71.0053 100.724 69.8427 100.724 68.392C100.724 66.9413 100.308 65.7893 99.4758 64.936C98.6651 64.0613 97.6198 63.624 96.3398 63.624C95.0598 63.624 94.0038 64.0613 93.1718 64.936C92.3398 65.7893 91.9238 66.9413 91.9238 68.392C91.9238 69.8427 92.3398 71.0053 93.1718 71.88C94.0038 72.7333 95.0598 73.16 96.3398 73.16ZM136.296 59.784L130.056 77H125.256L121.384 66.312L117.384 77H112.584L106.376 59.784H111.08L115.144 71.432L119.368 59.784H123.592L127.688 71.432L131.88 59.784H136.296ZM175.327 59.784L169.087 77H164.287L160.415 66.312L156.415 77H151.615L145.407 59.784H150.111L154.175 71.432L158.399 59.784H162.623L166.719 71.432L170.911 59.784H175.327ZM194.043 68.456C194.043 68.52 194.011 68.968 193.947 69.8H180.923C181.158 70.8667 181.712 71.7093 182.587 72.328C183.462 72.9467 184.55 73.256 185.851 73.256C186.747 73.256 187.536 73.128 188.219 72.872C188.923 72.5947 189.574 72.168 190.171 71.592L192.827 74.472C191.206 76.328 188.838 77.256 185.723 77.256C183.782 77.256 182.064 76.8827 180.571 76.136C179.078 75.368 177.926 74.312 177.115 72.968C176.304 71.624 175.899 70.0987 175.899 68.392C175.899 66.7067 176.294 65.192 177.083 63.848C177.894 62.4827 178.992 61.4267 180.379 60.68C181.787 59.912 183.355 59.528 185.083 59.528C186.768 59.528 188.294 59.8907 189.659 60.616C191.024 61.3413 192.091 62.3867 192.859 63.752C193.648 65.096 194.043 66.664 194.043 68.456ZM185.115 63.304C183.984 63.304 183.035 63.624 182.267 64.264C181.499 64.904 181.03 65.7787 180.859 66.888H189.339C189.168 65.8 188.699 64.936 187.931 64.296C187.163 63.6347 186.224 63.304 185.115 63.304ZM214.749 77.256C212.914 77.256 211.261 76.8827 209.789 76.136C208.338 75.368 207.197 74.312 206.365 72.968C205.554 71.624 205.149 70.0987 205.149 68.392C205.149 66.6853 205.554 65.16 206.365 63.816C207.197 62.472 208.338 61.4267 209.789 60.68C211.261 59.912 212.914 59.528 214.749 59.528C216.562 59.528 218.141 59.912 219.485 60.68C220.85 61.4267 221.842 62.504 222.461 63.912L218.589 65.992C217.693 64.4133 216.402 63.624 214.717 63.624C213.416 63.624 212.338 64.0507 211.485 64.904C210.632 65.7573 210.205 66.92 210.205 68.392C210.205 69.864 210.632 71.0267 211.485 71.88C212.338 72.7333 213.416 73.16 214.717 73.16C216.424 73.16 217.714 72.3707 218.589 70.792L222.461 72.904C221.842 74.2693 220.85 75.336 219.485 76.104C218.141 76.872 216.562 77.256 214.749 77.256ZM232.279 59.528C234.946 59.528 236.994 60.168 238.423 61.448C239.853 62.7067 240.567 64.616 240.567 67.176V77H235.895V74.856C234.957 76.456 233.207 77.256 230.647 77.256C229.325 77.256 228.173 77.032 227.191 76.584C226.231 76.136 225.495 75.5173 224.983 74.728C224.471 73.9387 224.215 73.0427 224.215 72.04C224.215 70.44 224.813 69.1813 226.007 68.264C227.223 67.3467 229.09 66.888 231.607 66.888H235.575C235.575 65.8 235.245 64.968 234.583 64.392C233.922 63.7947 232.93 63.496 231.607 63.496C230.69 63.496 229.783 63.6453 228.887 63.944C228.013 64.2213 227.266 64.6053 226.647 65.096L224.855 61.608C225.794 60.9467 226.914 60.4347 228.215 60.072C229.538 59.7093 230.893 59.528 232.279 59.528ZM231.895 73.896C232.749 73.896 233.506 73.704 234.167 73.32C234.829 72.9147 235.298 72.328 235.575 71.56V69.8H232.151C230.103 69.8 229.079 70.472 229.079 71.816C229.079 72.456 229.325 72.968 229.815 73.352C230.327 73.7147 231.021 73.896 231.895 73.896ZM255.549 59.528C257.683 59.528 259.4 60.168 260.701 61.448C262.024 62.728 262.685 64.6267 262.685 67.144V77H257.693V67.912C257.693 66.5467 257.395 65.5333 256.797 64.872C256.2 64.1893 255.336 63.848 254.205 63.848C252.947 63.848 251.944 64.2427 251.197 65.032C250.451 65.8 250.077 66.952 250.077 68.488V77H245.085V59.784H249.853V61.8C250.515 61.0747 251.336 60.52 252.317 60.136C253.299 59.7307 254.376 59.528 255.549 59.528ZM286.737 59.528C288.87 59.528 290.587 60.168 291.889 61.448C293.211 62.728 293.873 64.6267 293.873 67.144V77H288.881V67.912C288.881 66.5467 288.582 65.5333 287.985 64.872C287.387 64.1893 286.523 63.848 285.393 63.848C284.134 63.848 283.131 64.2427 282.385 65.032C281.638 65.8 281.265 66.952 281.265 68.488V77H276.273V53.256H281.265V61.576C281.926 60.9147 282.726 60.4133 283.665 60.072C284.603 59.7093 285.627 59.528 286.737 59.528ZM315.449 68.456C315.449 68.52 315.417 68.968 315.353 69.8H302.329C302.564 70.8667 303.119 71.7093 303.993 72.328C304.868 72.9467 305.956 73.256 307.257 73.256C308.153 73.256 308.943 73.128 309.625 72.872C310.329 72.5947 310.98 72.168 311.577 71.592L314.233 74.472C312.612 76.328 310.244 77.256 307.129 77.256C305.188 77.256 303.471 76.8827 301.977 76.136C300.484 75.368 299.332 74.312 298.521 72.968C297.711 71.624 297.305 70.0987 297.305 68.392C297.305 66.7067 297.7 65.192 298.489 63.848C299.3 62.4827 300.399 61.4267 301.785 60.68C303.193 59.912 304.761 59.528 306.489 59.528C308.175 59.528 309.7 59.8907 311.065 60.616C312.431 61.3413 313.497 62.3867 314.265 63.752C315.055 65.096 315.449 66.664 315.449 68.456ZM306.521 63.304C305.391 63.304 304.441 63.624 303.673 64.264C302.905 64.904 302.436 65.7787 302.265 66.888H310.745C310.575 65.8 310.105 64.936 309.337 64.296C308.569 63.6347 307.631 63.304 306.521 63.304ZM318.773 53.256H323.765V77H318.773V53.256ZM338.574 59.528C340.174 59.528 341.624 59.9013 342.926 60.648C344.248 61.3733 345.283 62.408 346.03 63.752C346.776 65.0747 347.15 66.6213 347.15 68.392C347.15 70.1627 346.776 71.72 346.03 73.064C345.283 74.3867 344.248 75.4213 342.926 76.168C341.624 76.8933 340.174 77.256 338.574 77.256C336.376 77.256 334.648 76.5627 333.39 75.176V83.208H328.398V59.784H333.166V61.768C334.403 60.2747 336.206 59.528 338.574 59.528ZM337.71 73.16C338.99 73.16 340.035 72.7333 340.846 71.88C341.678 71.0053 342.094 69.8427 342.094 68.392C342.094 66.9413 341.678 65.7893 340.846 64.936C340.035 64.0613 338.99 63.624 337.71 63.624C336.43 63.624 335.374 64.0613 334.542 64.936C333.731 65.7893 333.326 66.9413 333.326 68.392C333.326 69.8427 333.731 71.0053 334.542 71.88C335.374 72.7333 336.43 73.16 337.71 73.16ZM376.642 59.784L368.866 78.056C368.077 80.04 367.095 81.4373 365.922 82.248C364.77 83.0587 363.373 83.464 361.73 83.464C360.834 83.464 359.949 83.3253 359.074 83.048C358.199 82.7707 357.485 82.3867 356.93 81.896L358.754 78.344C359.138 78.6853 359.575 78.952 360.066 79.144C360.578 79.336 361.079 79.432 361.57 79.432C362.253 79.432 362.807 79.2613 363.234 78.92C363.661 78.6 364.045 78.056 364.386 77.288L364.45 77.128L356.994 59.784H362.146L366.978 71.464L371.842 59.784H376.642ZM386.402 77.256C384.589 77.256 382.957 76.8827 381.506 76.136C380.077 75.368 378.957 74.312 378.146 72.968C377.336 71.624 376.93 70.0987 376.93 68.392C376.93 66.6853 377.336 65.16 378.146 63.816C378.957 62.472 380.077 61.4267 381.506 60.68C382.957 59.912 384.589 59.528 386.402 59.528C388.216 59.528 389.837 59.912 391.266 60.68C392.696 61.4267 393.816 62.472 394.626 63.816C395.437 65.16 395.842 66.6853 395.842 68.392C395.842 70.0987 395.437 71.624 394.626 72.968C393.816 74.312 392.696 75.368 391.266 76.136C389.837 76.8827 388.216 77.256 386.402 77.256ZM386.402 73.16C387.682 73.16 388.728 72.7333 389.538 71.88C390.37 71.0053 390.786 69.8427 390.786 68.392C390.786 66.9413 390.37 65.7893 389.538 64.936C388.728 64.0613 387.682 63.624 386.402 63.624C385.122 63.624 384.066 64.0613 383.234 64.936C382.402 65.7893 381.986 66.9413 381.986 68.392C381.986 69.8427 382.402 71.0053 383.234 71.88C384.066 72.7333 385.122 73.16 386.402 73.16ZM416.523 59.784V77H411.787V74.952C411.126 75.6987 410.336 76.2747 409.419 76.68C408.502 77.064 407.51 77.256 406.443 77.256C404.182 77.256 402.39 76.6053 401.067 75.304C399.744 74.0027 399.083 72.072 399.083 69.512V59.784H404.075V68.776C404.075 71.5493 405.238 72.936 407.563 72.936C408.758 72.936 409.718 72.552 410.443 71.784C411.168 70.9947 411.531 69.832 411.531 68.296V59.784H416.523ZM420.508 54.6H426.46L425.468 69.224H421.5L420.508 54.6ZM423.484 77.256C422.609 77.256 421.873 76.9787 421.276 76.424C420.7 75.848 420.412 75.1547 420.412 74.344C420.412 73.5333 420.7 72.8613 421.276 72.328C421.852 71.7733 422.588 71.496 423.484 71.496C424.38 71.496 425.116 71.7733 425.692 72.328C426.268 72.8613 426.556 73.5333 426.556 74.344C426.556 75.1547 426.257 75.848 425.66 76.424C425.084 76.9787 424.358 77.256 423.484 77.256Z" fill="white"/>
<path d="M71.286 124.27C69.378 124.27 67.65 123.856 66.102 123.028C64.572 122.182 63.366 121.021 62.484 119.545C61.62 118.069 61.188 116.404 61.188 114.55C61.188 112.696 61.629 111.031 62.511 109.555C63.393 108.079 64.599 106.927 66.129 106.099C67.677 105.253 69.405 104.83 71.313 104.83C72.861 104.83 74.274 105.1 75.552 105.64C76.83 106.18 77.91 106.963 78.792 107.989L76.524 110.122C75.156 108.646 73.473 107.908 71.475 107.908C70.179 107.908 69.018 108.196 67.992 108.772C66.966 109.33 66.165 110.113 65.589 111.121C65.013 112.129 64.725 113.272 64.725 114.55C64.725 115.828 65.013 116.971 65.589 117.979C66.165 118.987 66.966 119.779 67.992 120.355C69.018 120.913 70.179 121.192 71.475 121.192C73.473 121.192 75.156 120.445 76.524 118.951L78.792 121.111C77.91 122.137 76.821 122.92 75.525 123.46C74.247 124 72.834 124.27 71.286 124.27ZM87.7838 124.189C86.3258 124.189 85.0118 123.874 83.8418 123.244C82.6718 122.614 81.7538 121.741 81.0878 120.625C80.4398 119.491 80.1158 118.213 80.1158 116.791C80.1158 115.369 80.4398 114.1 81.0878 112.984C81.7538 111.868 82.6718 110.995 83.8418 110.365C85.0118 109.735 86.3258 109.42 87.7838 109.42C89.2598 109.42 90.5828 109.735 91.7528 110.365C92.9228 110.995 93.8318 111.868 94.4798 112.984C95.1458 114.1 95.4788 115.369 95.4788 116.791C95.4788 118.213 95.1458 119.491 94.4798 120.625C93.8318 121.741 92.9228 122.614 91.7528 123.244C90.5828 123.874 89.2598 124.189 87.7838 124.189ZM87.7838 121.3C89.0258 121.3 90.0518 120.886 90.8618 120.058C91.6718 119.23 92.0768 118.141 92.0768 116.791C92.0768 115.441 91.6718 114.352 90.8618 113.524C90.0518 112.696 89.0258 112.282 87.7838 112.282C86.5418 112.282 85.5158 112.696 84.7058 113.524C83.9138 114.352 83.5178 115.441 83.5178 116.791C83.5178 118.141 83.9138 119.23 84.7058 120.058C85.5158 120.886 86.5418 121.3 87.7838 121.3ZM106.887 109.42C108.705 109.42 110.163 109.951 111.261 111.013C112.359 112.075 112.908 113.65 112.908 115.738V124H109.533V116.17C109.533 114.91 109.236 113.965 108.642 113.335C108.048 112.687 107.202 112.363 106.104 112.363C104.862 112.363 103.881 112.741 103.161 113.497C102.441 114.235 102.081 115.306 102.081 116.71V124H98.7062V109.582H101.919V111.445C102.477 110.779 103.179 110.275 104.025 109.933C104.871 109.591 105.825 109.42 106.887 109.42ZM125.857 123.217C125.461 123.541 124.975 123.784 124.399 123.946C123.841 124.108 123.247 124.189 122.617 124.189C121.033 124.189 119.809 123.775 118.945 122.947C118.081 122.119 117.649 120.913 117.649 119.329V112.39H115.273V109.69H117.649V106.396H121.024V109.69H124.885V112.39H121.024V119.248C121.024 119.95 121.195 120.49 121.537 120.868C121.879 121.228 122.374 121.408 123.022 121.408C123.778 121.408 124.408 121.21 124.912 120.814L125.857 123.217ZM134.141 109.42C136.265 109.42 137.885 109.933 139.001 110.959C140.135 111.967 140.702 113.497 140.702 115.549V124H137.516V122.245C137.102 122.875 136.508 123.361 135.734 123.703C134.978 124.027 134.06 124.189 132.98 124.189C131.9 124.189 130.955 124.009 130.145 123.649C129.335 123.271 128.705 122.758 128.255 122.11C127.823 121.444 127.607 120.697 127.607 119.869C127.607 118.573 128.084 117.538 129.038 116.764C130.01 115.972 131.531 115.576 133.601 115.576H137.327V115.36C137.327 114.352 137.021 113.578 136.409 113.038C135.815 112.498 134.924 112.228 133.736 112.228C132.926 112.228 132.125 112.354 131.333 112.606C130.559 112.858 129.902 113.209 129.362 113.659L128.039 111.202C128.795 110.626 129.704 110.185 130.766 109.879C131.828 109.573 132.953 109.42 134.141 109.42ZM133.682 121.732C134.528 121.732 135.275 121.543 135.923 121.165C136.589 120.769 137.057 120.211 137.327 119.491V117.817H133.844C131.9 117.817 130.928 118.456 130.928 119.734C130.928 120.346 131.171 120.832 131.657 121.192C132.143 121.552 132.818 121.732 133.682 121.732ZM151.78 124.189C150.286 124.189 148.945 123.874 147.757 123.244C146.569 122.614 145.642 121.741 144.976 120.625C144.31 119.491 143.977 118.213 143.977 116.791C143.977 115.369 144.31 114.1 144.976 112.984C145.642 111.868 146.56 110.995 147.73 110.365C148.918 109.735 150.268 109.42 151.78 109.42C153.202 109.42 154.444 109.708 155.506 110.284C156.586 110.86 157.396 111.688 157.936 112.768L155.344 114.28C154.93 113.614 154.408 113.119 153.778 112.795C153.166 112.453 152.491 112.282 151.753 112.282C150.493 112.282 149.449 112.696 148.621 113.524C147.793 114.334 147.379 115.423 147.379 116.791C147.379 118.159 147.784 119.257 148.594 120.085C149.422 120.895 150.475 121.3 151.753 121.3C152.491 121.3 153.166 121.138 153.778 120.814C154.408 120.472 154.93 119.968 155.344 119.302L157.936 120.814C157.378 121.894 156.559 122.731 155.479 123.325C154.417 123.901 153.184 124.189 151.78 124.189ZM169.705 123.217C169.309 123.541 168.823 123.784 168.247 123.946C167.689 124.108 167.095 124.189 166.465 124.189C164.881 124.189 163.657 123.775 162.793 122.947C161.929 122.119 161.497 120.913 161.497 119.329V112.39H159.121V109.69H161.497V106.396H164.872V109.69H168.733V112.39H164.872V119.248C164.872 119.95 165.043 120.49 165.385 120.868C165.727 121.228 166.222 121.408 166.87 121.408C167.626 121.408 168.256 121.21 168.76 120.814L169.705 123.217ZM188.394 124.27C185.784 124.27 183.75 123.541 182.292 122.083C180.834 120.607 180.105 118.501 180.105 115.765V105.1H183.615V115.63C183.615 119.338 185.217 121.192 188.421 121.192C191.607 121.192 193.2 119.338 193.2 115.63V105.1H196.656V115.765C196.656 118.501 195.927 120.607 194.469 122.083C193.029 123.541 191.004 124.27 188.394 124.27ZM205.703 124.189C204.533 124.189 203.39 124.036 202.274 123.73C201.158 123.424 200.267 123.037 199.601 122.569L200.897 120.004C201.545 120.436 202.319 120.787 203.219 121.057C204.137 121.309 205.037 121.435 205.919 121.435C207.935 121.435 208.943 120.904 208.943 119.842C208.943 119.338 208.682 118.987 208.16 118.789C207.656 118.591 206.837 118.402 205.703 118.222C204.515 118.042 203.543 117.835 202.787 117.601C202.049 117.367 201.401 116.962 200.843 116.386C200.303 115.792 200.033 114.973 200.033 113.929C200.033 112.561 200.6 111.472 201.734 110.662C202.886 109.834 204.434 109.42 206.378 109.42C207.368 109.42 208.358 109.537 209.348 109.771C210.338 109.987 211.148 110.284 211.778 110.662L210.482 113.227C209.258 112.507 207.881 112.147 206.351 112.147C205.361 112.147 204.605 112.3 204.083 112.606C203.579 112.894 203.327 113.281 203.327 113.767C203.327 114.307 203.597 114.694 204.137 114.928C204.695 115.144 205.55 115.351 206.702 115.549C207.854 115.729 208.799 115.936 209.537 116.17C210.275 116.404 210.905 116.8 211.427 117.358C211.967 117.916 212.237 118.708 212.237 119.734C212.237 121.084 211.652 122.164 210.482 122.974C209.312 123.784 207.719 124.189 205.703 124.189Z" fill="white"/>
<path d="M226.167 114H237.833" stroke="white" stroke-width="1.66667" stroke-linecap="round" stroke-linejoin="round"/>
<path d="M232 108.167L237.833 114L232 119.833" stroke="white" stroke-width="1.66667" stroke-linecap="round" stroke-linejoin="round"/>
<line x1="61" y1="132" x2="238" y2="132" stroke="white" stroke-width="2"/>
<path d="M566.917 118.355V134.73C566.911 136.25 567.222 137.755 567.831 139.148C568.44 140.541 569.333 141.791 570.453 142.819C571.573 143.846 572.896 144.629 574.336 145.116C575.776 145.603 577.302 145.783 578.816 145.647C595.612 143.822 611.746 138.082 625.921 128.89C639.11 120.509 650.291 109.328 658.671 96.1396C667.896 81.8999 673.637 65.6875 675.428 48.8158C675.565 47.3064 675.385 45.7851 674.902 44.3489C674.418 42.9126 673.64 41.5928 672.619 40.4734C671.597 39.3541 670.353 38.4598 668.967 37.8474C667.58 37.2351 666.082 36.9181 664.566 36.9167H648.191C645.542 36.8906 642.974 37.8286 640.966 39.5559C638.957 41.2833 637.645 43.682 637.275 46.305C636.583 51.5454 635.302 56.6907 633.454 61.6429C632.719 63.5966 632.56 65.7198 632.996 67.7611C633.431 69.8023 634.442 71.6759 635.91 73.16L642.842 80.0921C635.072 93.7573 623.757 105.072 610.092 112.842L603.16 105.91C601.676 104.442 599.802 103.431 597.761 102.996C595.72 102.56 593.597 102.719 591.643 103.454C586.691 105.302 581.545 106.583 576.305 107.275C573.654 107.649 571.232 108.984 569.501 111.027C567.77 113.07 566.85 115.678 566.917 118.355Z" stroke="black" stroke-opacity="0.05" stroke-width="6.25" stroke-linecap="round" stroke-linejoin="round"/>
<defs>
<filter id="filter0_d" x="0" y="0" width="727" height="193" filterUnits="userSpaceOnUse" color-interpolation-filters="sRGB">
<feFlood flood-opacity="0" result="BackgroundImageFix"/>
<feColorMatrix in="SourceAlpha" type="matrix" values="0 0 0 0 0 0 0 0 0 0 0 0 0 0 0 0 0 0 127 0"/>
<feMorphology radius="5" operator="dilate" in="SourceAlpha" result="effect1_dropShadow"/>
<feOffset dy="5"/>
<feGaussianBlur stdDeviation="6"/>
<feColorMatrix type="matrix" values="0 0 0 0 0 0 0 0 0 0 0 0 0 0 0 0 0 0 0.07 0"/>
<feBlend mode="normal" in2="BackgroundImageFix" result="effect1_dropShadow"/>
<feBlend mode="normal" in="SourceGraphic" in2="effect1_dropShadow" result="shape"/>
</filter>
<linearGradient id="paint0_linear" x1="17" y1="91.0001" x2="710" y2="91.0001" gradientUnits="userSpaceOnUse">
<stop stop-color="#E7272D"/>
<stop offset="1" stop-color="#E7272D" stop-opacity="0.44"/>
</linearGradient>
</defs>
</svg>
