<svg id="up-arrow" xmlns="http://www.w3.org/2000/svg" width="512" height="512" viewBox="0 0 512 512">
  <g id="Group_7" data-name="Group 7">
    <circle id="Ellipse_1" data-name="Ellipse 1" cx="236.17" cy="236.17" r="236.17" transform="translate(19.83 19.83)" fill="#ae1916"/>
    <path id="Path_19" data-name="Path 19" d="M256,512C114.853,512,0,397.167,0,256,0,114.853,114.853,0,256,0,397.167,0,512,114.853,512,256,512,397.167,397.167,512,256,512Zm0-472.341C136.705,39.659,39.659,136.705,39.659,256S136.705,472.341,256,472.341,472.341,375.275,472.341,256C472.341,136.705,375.3,39.659,256,39.659Z" fill="#ae1916"/>
  </g>
  <path id="Path_20" data-name="Path 20" d="M369.227,311.126a19.82,19.82,0,0,1-27.96,0L256.2,226.057l-85.069,85.069a19.829,19.829,0,0,1-27.96-27.959l99.148-99.148a19.82,19.82,0,0,1,27.96,0l99.148,99.148A19.819,19.819,0,0,1,369.227,311.126Z" fill="#fff"/>
</svg>
